<?xml version="1.0" encoding="UTF-8" standalone="no"?>
<!-- Created with Inkscape (http://www.inkscape.org/) -->

<svg
   xmlns:dc="http://purl.org/dc/elements/1.1/"
   xmlns:cc="http://creativecommons.org/ns#"
   xmlns:rdf="http://www.w3.org/1999/02/22-rdf-syntax-ns#"
   xmlns:svg="http://www.w3.org/2000/svg"
   xmlns="http://www.w3.org/2000/svg"
   xmlns:sodipodi="http://sodipodi.sourceforge.net/DTD/sodipodi-0.dtd"
   xmlns:inkscape="http://www.inkscape.org/namespaces/inkscape"
   id="svg2"
   version="1.1"
   inkscape:version="0.48.4 r9939"
   width="52"
   height="43"
   sodipodi:docname="g2024.svg">
  <metadata
     id="metadata8">
    <rdf:RDF>
      <cc:Work
         rdf:about="">
        <dc:format>image/svg+xml</dc:format>
        <dc:type
           rdf:resource="http://purl.org/dc/dcmitype/StillImage" />
        <dc:title />
      </cc:Work>
    </rdf:RDF>
  </metadata>
  <defs
     id="defs6" />
  <sodipodi:namedview
     pagecolor="#404754"
     bordercolor="#666666"
     borderopacity="1"
     objecttolerance="10"
     gridtolerance="10"
     guidetolerance="10"
     inkscape:pageopacity="1"
     inkscape:pageshadow="2"
     inkscape:window-width="1301"
     inkscape:window-height="744"
     id="namedview4"
     showgrid="false"
     inkscape:zoom="3.620168"
     inkscape:cx="33.106582"
     inkscape:cy="8.7130374"
     inkscape:window-x="65"
     inkscape:window-y="24"
     inkscape:window-maximized="1"
     inkscape:current-layer="svg2" />
  <g
     transform="matrix(1.2351802,0.19191073,0.19191073,-1.2351802,109.2518,11.394485)"
     id="g2008"
     inkscape:transform-center-x="-56.352144"
     inkscape:transform-center-y="19.80381">
    <path
       inkscape:connector-curvature="0"
       id="path2010"
       style="fill:#ffffff;fill-opacity:1;fill-rule:nonzero;stroke:none"
       d="m -47.649749,-17.562716 c -0.250214,0.233502 2.111891,-1.168181 -0.116496,0.266354 l -0.03034,0.01954 c -0.01672,-1.016406 4.062634,-0.08017 -0.134776,-0.01508 l 0.162445,-0.06559 -0.09387,-0.01712 0.05148,-6.973871 -31.992066,-1.237773 0.146309,0.0917 -0.127419,0.06914 -1.154178,-2.614852 c 0.05154,0.116763 -0.543768,0.02121 -0.04557,0.03741 l 34.563793,1.124245 c 0.711622,0.02315 1.237596,0.62691 1.239123,1.339908 l 0.0079,3.714663 c 0.0039,1.817515 -2.460922,4.224814 -2.713094,4.457239"
       sodipodi:nodetypes="csccccccccsssssc" />
  </g>
  <g
     transform="matrix(1.1354991,0.5226296,0.5226296,-1.1354991,18.937495,13.26034)"
     id="g2016"
     inkscape:export-filename="/home/oakanji/Downloads/Picons/g2024.png"
     inkscape:export-xdpi="90"
     inkscape:export-ydpi="90">
    <path
       inkscape:connector-curvature="0"
       id="path2018"
       style="fill:#3b404e;fill-opacity:1;fill-rule:nonzero;stroke:none"
       d="M 0,0 C -0.086,-0.19 -0.069,-0.414 0.047,-0.667 0.158,-0.908 0.31,-1.059 0.501,-1.12 0.692,-1.183 0.949,-1.2 1.271,-1.173 L 0.461,0.58 C 0.24,0.385 0.086,0.191 0,0" />
  </g>
  <g
     transform="matrix(1.1354991,0.5226296,0.5226296,-1.1354991,21.562395,17.63314)"
     id="g2020"
     inkscape:export-filename="/home/oakanji/Downloads/Picons/g2024.png"
     inkscape:export-xdpi="90"
     inkscape:export-ydpi="90">
    <path
       inkscape:connector-curvature="0"
       id="path2022"
       style="fill:#3b404e;fill-opacity:1;fill-rule:nonzero;stroke:none"
       d="m 0,0 c -0.231,0.068 -0.527,0.081 -0.891,0.035 l 0.52,-1.122 0.407,-0.882 c 0.279,0.202 0.46,0.436 0.542,0.7 0.02,0.061 0.015,0.122 0.024,0.182 0.026,0.199 0.014,0.395 -0.073,0.584 C 0.408,-0.237 0.23,-0.071 0,0" />
  </g>
  <g
     transform="matrix(1.1354991,0.5226296,0.5226296,-1.1354991,29.009607,19.78904)"
     id="g2024"
     inkscape:export-xdpi="90"
     inkscape:export-ydpi="90"
     style="fill:#ffffff">
    <path
       inkscape:connector-curvature="0"
       id="path2026"
       style="fill:#ffffff;fill-opacity:1;fill-rule:nonzero;stroke:none"
       d="m 0,0 c -0.046,-0.317 -0.149,-0.623 -0.345,-0.91 -0.228,-0.339 -0.551,-0.627 -0.97,-0.865 l 0.349,-0.757 c 0.009,-0.019 0.012,-0.033 0.02,-0.05 0.067,-0.154 0.105,-0.28 0.108,-0.369 0.003,-0.098 -0.054,-0.174 -0.173,-0.23 -0.109,-0.05 -0.204,-0.053 -0.279,-0.007 -0.075,0.048 -0.143,0.142 -0.207,0.281 l -0.15,0.325 -0.245,0.529 c -0.376,-0.125 -0.727,-0.187 -1.053,-0.181 -0.326,0.005 -0.622,0.061 -0.89,0.17 -0.266,0.108 -0.489,0.245 -0.67,0.412 -0.181,0.167 -0.318,0.348 -0.41,0.547 -0.066,0.147 -0.071,0.305 -0.01,0.475 0.061,0.171 0.176,0.296 0.348,0.375 0.136,0.063 0.265,0.083 0.39,0.064 0.125,-0.02 0.231,-0.08 0.323,-0.18 0.198,-0.212 0.357,-0.37 0.479,-0.475 0.122,-0.104 0.272,-0.183 0.446,-0.236 0.174,-0.052 0.378,-0.061 0.609,-0.024 L -2.841,0 -3.313,1.024 C -3.774,0.947 -4.175,0.914 -4.515,0.926 -4.853,0.938 -5.167,1.033 -5.456,1.21 -5.744,1.388 -5.983,1.677 -6.17,2.081 c -0.242,0.524 -0.273,1.032 -0.094,1.522 0.18,0.49 0.572,0.908 1.179,1.255 l -0.313,0.678 c -0.118,0.256 -0.081,0.428 0.11,0.517 0.194,0.09 0.351,0.009 0.467,-0.24 l 0.316,-0.687 c 0.343,0.119 0.653,0.181 0.934,0.187 0.279,0.007 0.553,-0.051 0.822,-0.175 0.208,-0.092 0.39,-0.203 0.541,-0.333 0.15,-0.131 0.256,-0.264 0.32,-0.401 C -1.816,4.251 -1.812,4.093 -1.871,3.93 -1.932,3.767 -2.041,3.648 -2.199,3.576 -2.499,3.437 -2.766,3.51 -3.006,3.792 -3.282,4.128 -3.643,4.269 -4.083,4.216 l 0.878,-1.904 c 0.427,0.071 0.772,0.116 1.035,0.134 0.266,0.017 0.523,-0.013 0.773,-0.093 0.267,-0.081 0.505,-0.213 0.716,-0.4 0.21,-0.185 0.379,-0.418 0.507,-0.696 C -0.013,0.909 0.058,0.545 0.032,0.167 0.029,0.109 0.008,0.056 0,0 M -3.101,8.798 C -3.2,8.798 -3.299,8.786 -3.398,8.782 -4.344,8.743 -5.265,8.53 -6.134,8.129 -7.019,7.72 -7.794,7.151 -8.434,6.457 -9.065,5.768 -9.563,4.957 -9.896,4.053 -10.38,2.735 -10.466,1.339 -10.17,0 c 0.112,-0.506 0.274,-1.006 0.498,-1.488 0.179,-0.389 0.401,-0.75 0.642,-1.095 1.34,-1.918 3.551,-3.114 5.938,-3.114 0.102,0 0.199,0.012 0.299,0.016 0.946,0.039 1.867,0.251 2.736,0.654 0.883,0.408 1.66,0.977 2.298,1.672 0.222,0.241 0.421,0.502 0.608,0.773 0.347,0.5 0.638,1.044 0.855,1.63 C 3.82,-0.639 3.904,-0.32 3.976,0 4.315,1.538 4.153,3.135 3.481,4.589 2.301,7.146 -0.283,8.798 -3.101,8.798" />
  </g>
  <path
     d="m 6.614461,27.003983 -0.02962,-20.6034976 40.020062,-0.0575 0.03,20.6034976 -40.0201,0.0575 z m 42.987187,2.383875 c 0.1515,-0.245375 0.264,-0.519625 0.26225,-0.832875 l -0.035,-23.8309976 c 0,-0.427375 -0.17025,-0.837875 -0.474125,-1.14025 -0.135875,-0.135375 -0.293125,-0.245 -0.464625,-0.323875 -0.01375,-0.0125 -0.02625,-0.0125 -0.04125,-0.01875 -0.01875,-0.0125 -0.03625,-0.01625 -0.0625,-0.015 C 48.603523,3.1573604 48.410773,3.11236 48.212273,3.11361 l -43.2482,0.06375 c -0.892075,8.75e-4 -1.613137,0.7243754 -1.6129,1.6147504 l 0.03425,23.8311226 c 0.0025,0.428875 0.172525,0.838875 0.476488,1.14125 0.133012,0.1355 0.292025,0.2445 0.463475,0.323375 0.210075,0.09625 0.44105,0.148 0.6765,0.147625 l 43.248762,-0.0625 c 0.5795,-2.5e-4 1.064625,-0.324625 1.349,-0.784125"
     style="fill:#ffffff;fill-opacity:1;fill-rule:nonzero;stroke:none"
     id="path2014-7"
     inkscape:connector-curvature="0"
     inkscape:export-filename="/home/oakanji/Downloads/Picons/g2024.png"
     inkscape:export-xdpi="90"
     inkscape:export-ydpi="90" />
</svg>
