<?xml version="1.0" encoding="UTF-8" standalone="no"?>
<!-- Created with Inkscape (http://www.inkscape.org/) -->

<svg
   xmlns:dc="http://purl.org/dc/elements/1.1/"
   xmlns:cc="http://creativecommons.org/ns#"
   xmlns:rdf="http://www.w3.org/1999/02/22-rdf-syntax-ns#"
   xmlns:svg="http://www.w3.org/2000/svg"
   xmlns="http://www.w3.org/2000/svg"
   xmlns:sodipodi="http://sodipodi.sourceforge.net/DTD/sodipodi-0.dtd"
   xmlns:inkscape="http://www.inkscape.org/namespaces/inkscape"
   id="svg2"
   version="1.1"
   inkscape:version="0.48.4 r9939"
   width="43.839146"
   height="61.681129"
   sodipodi:docname="dollar.svg">
  <metadata
     id="metadata8">
    <rdf:RDF>
      <cc:Work
         rdf:about="">
        <dc:format>image/svg+xml</dc:format>
        <dc:type
           rdf:resource="http://purl.org/dc/dcmitype/StillImage" />
        <dc:title></dc:title>
      </cc:Work>
    </rdf:RDF>
  </metadata>
  <defs
     id="defs6" />
  <sodipodi:namedview
     pagecolor="#404754"
     bordercolor="#666666"
     borderopacity="1"
     objecttolerance="10"
     gridtolerance="10"
     guidetolerance="10"
     inkscape:pageopacity="1"
     inkscape:pageshadow="2"
     inkscape:window-width="1301"
     inkscape:window-height="744"
     id="namedview4"
     showgrid="false"
     inkscape:zoom="3.620168"
     inkscape:cx="29.33674"
     inkscape:cy="14.692876"
     inkscape:window-x="65"
     inkscape:window-y="24"
     inkscape:window-maximized="1"
     inkscape:current-layer="svg2"
     fit-margin-top="0"
     fit-margin-left="0"
     fit-margin-right="0"
     fit-margin-bottom="0" />
  <g
     id="g1144"
     transform="matrix(1.25,0,0,-1.25,43.79932,42.476128)"
     style="fill:#ffffff">
    <path
       d="m 0,0 c 0.036,0.788 -0.023,1.535 -0.177,2.265 -0.319,1.847 -1.066,3.799 -1.855,5.861 -1.872,4.9 -2.407,9.966 1.19,14.164 0.13,0.149 0.149,0.362 0.053,0.534 -0.097,0.172 -0.293,0.267 -0.485,0.232 -5.85,-0.976 -8.866,-8.886 -9.682,-11.931 -2.688,5.118 -3.139,14.654 -3.139,22.389 0,0.168 -0.091,0.324 -0.239,0.406 -0.145,0.083 -0.326,0.081 -0.47,-0.005 -4.617,-2.772 -6.899,-9.429 -7.801,-13.986 -0.707,-4.283 -0.849,-12.281 -2.798,-15.234 -0.027,-0.009 -0.052,-0.021 -0.076,-0.031 -1.042,3.708 -3.877,10.518 -6.632,12.354 -0.727,0.484 -1.479,0.985 -2.179,1.511 -0.168,0.122 -0.394,0.122 -0.561,0 -0.166,-0.123 -0.231,-0.341 -0.16,-0.536 1.31,-3.599 0.87,-7.814 0.446,-11.89 -0.717,-6.871 -1.456,-13.975 6.002,-18.562 0.364,-0.183 0.735,-0.355 1.109,-0.522 2.683,-1.499 5.948,-2.383 9.473,-2.383 0.232,0 0.461,0.006 0.692,0.013 0.231,-0.007 0.461,-0.013 0.692,-0.013 9.128,0 16.53,5.9 16.535,13.182 C 0.033,-1.467 0.06,-0.74 0,0"
       style="fill:#ffffff;fill-opacity:1;fill-rule:nonzero;stroke:none"
       id="path1146"
       inkscape:connector-curvature="0" />
  </g>
</svg>
