<?xml version="1.0" encoding="UTF-8" standalone="no"?>
<!-- Created with Inkscape (http://www.inkscape.org/) -->

<svg
   xmlns:dc="http://purl.org/dc/elements/1.1/"
   xmlns:cc="http://creativecommons.org/ns#"
   xmlns:rdf="http://www.w3.org/1999/02/22-rdf-syntax-ns#"
   xmlns:svg="http://www.w3.org/2000/svg"
   xmlns="http://www.w3.org/2000/svg"
   xmlns:sodipodi="http://sodipodi.sourceforge.net/DTD/sodipodi-0.dtd"
   xmlns:inkscape="http://www.inkscape.org/namespaces/inkscape"
   id="svg2"
   version="1.1"
   inkscape:version="0.48.4 r9939"
   width="33.806145"
   height="62.1021"
   sodipodi:docname="unique.svg">
  <metadata
     id="metadata8">
    <rdf:RDF>
      <cc:Work
         rdf:about="">
        <dc:format>image/svg+xml</dc:format>
        <dc:type
           rdf:resource="http://purl.org/dc/dcmitype/StillImage" />
        <dc:title></dc:title>
      </cc:Work>
    </rdf:RDF>
  </metadata>
  <defs
     id="defs6" />
  <sodipodi:namedview
     pagecolor="#404754"
     bordercolor="#666666"
     borderopacity="1"
     objecttolerance="10"
     gridtolerance="10"
     guidetolerance="10"
     inkscape:pageopacity="1"
     inkscape:pageshadow="2"
     inkscape:window-width="1301"
     inkscape:window-height="744"
     id="namedview4"
     showgrid="false"
     inkscape:zoom="3.620168"
     inkscape:cx="23.830185"
     inkscape:cy="26.471045"
     inkscape:window-x="65"
     inkscape:window-y="24"
     inkscape:window-maximized="1"
     inkscape:current-layer="svg2"
     fit-margin-top="0"
     fit-margin-left="0"
     fit-margin-right="0"
     fit-margin-bottom="0" />
  <g
     transform="matrix(1.25,0,0,-1.25,13.817596,1.0376)"
     id="g2264"
     style="fill:#ffffff">
    <path
       inkscape:connector-curvature="0"
       id="path2266"
       style="fill:#ffffff;fill-opacity:1;fill-rule:nonzero;stroke:none"
       d="M 0,0 C 0.058,0.04 0.113,0.089 0.172,0.126 0.113,0.089 0.058,0.04 0,0" />
  </g>
  <g
     transform="matrix(1.25,0,0,-1.25,14.404696,0.6836)"
     id="g2268"
     style="fill:#ffffff">
    <path
       inkscape:connector-curvature="0"
       id="path2270"
       style="fill:#ffffff;fill-opacity:1;fill-rule:nonzero;stroke:none"
       d="M 0,0 C 0.141,0.077 0.279,0.162 0.425,0.224 0.279,0.162 0.141,0.077 0,0" />
  </g>
  <g
     transform="matrix(1.25,0,0,-1.25,17.840996,0.1039)"
     id="g2272"
     style="fill:#ffffff">
    <path
       inkscape:connector-curvature="0"
       id="path2274"
       style="fill:#ffffff;fill-opacity:1;fill-rule:nonzero;stroke:none"
       d="M 0,0 C 0.15,-0.032 0.295,-0.092 0.441,-0.141 0.295,-0.092 0.15,-0.032 0,0" />
  </g>
  <g
     transform="matrix(1.25,0,0,-1.25,18.784596,0.4041)"
     id="g2276"
     style="fill:#ffffff">
    <path
       inkscape:connector-curvature="0"
       id="path2278"
       style="fill:#ffffff;fill-opacity:1;fill-rule:nonzero;stroke:none"
       d="M 0,0 C 0.095,-0.04 0.185,-0.1 0.277,-0.146 0.185,-0.1 0.095,-0.04 0,0" />
  </g>
  <g
     transform="matrix(1.25,0,0,-1.25,16.860896,0)"
     id="g2280"
     style="fill:#ffffff">
    <path
       inkscape:connector-curvature="0"
       id="path2282"
       style="fill:#ffffff;fill-opacity:1;fill-rule:nonzero;stroke:none"
       d="M 0,0 -0.001,0 C 0.194,0 0.385,-0.031 0.575,-0.062 0.385,-0.031 0.195,0 0,0" />
  </g>
  <g
     transform="matrix(1.25,0,0,-1.25,15.178696,0.326)"
     id="g2284"
     style="fill:#ffffff">
    <path
       inkscape:connector-curvature="0"
       id="path2286"
       style="fill:#ffffff;fill-opacity:1;fill-rule:nonzero;stroke:none"
       d="M 0,0 C 0.185,0.067 0.369,0.137 0.56,0.178 0.369,0.137 0.186,0.067 0,0" />
  </g>
  <g
     transform="matrix(1.25,0,0,-1.25,16.858396,0)"
     id="g2288"
     style="fill:#ffffff">
    <path
       inkscape:connector-curvature="0"
       id="path2290"
       style="fill:#ffffff;fill-opacity:1;fill-rule:nonzero;stroke:none"
       d="M 0,0 C -0.141,0 -0.276,-0.028 -0.415,-0.044 -0.276,-0.028 -0.14,0 0.001,0 L 0,0 z" />
  </g>
  <g
     transform="matrix(1.25,0,0,-1.25,19.686696,0.879)"
     id="g2292"
     style="fill:#ffffff">
    <path
       inkscape:connector-curvature="0"
       id="path2294"
       style="fill:#ffffff;fill-opacity:1;fill-rule:nonzero;stroke:none"
       d="M 0,0 C 0.059,-0.037 0.113,-0.086 0.171,-0.125 0.113,-0.086 0.059,-0.037 0,0" />
  </g>
  <g
     transform="matrix(1.25,0,0,-1.25,14.032496,0.8801)"
     id="g2296"
     style="fill:#ffffff">
    <path
       inkscape:connector-curvature="0"
       id="path2298"
       style="fill:#ffffff;fill-opacity:1;fill-rule:nonzero;stroke:none"
       d="M 0,0 C 0.097,0.062 0.199,0.104 0.298,0.157 0.199,0.104 0.097,0.062 0,0" />
  </g>
  <g
     transform="matrix(1.25,0,0,-1.25,17.579896,0.077)"
     id="g2300"
     style="fill:#ffffff">
    <path
       inkscape:connector-curvature="0"
       id="path2302"
       style="fill:#ffffff;fill-opacity:1;fill-rule:nonzero;stroke:none"
       d="M 0,0 C 0.068,-0.011 0.141,-0.008 0.209,-0.021 0.141,-0.008 0.068,-0.011 0,0" />
  </g>
  <g
     transform="matrix(1.25,0,0,-1.25,14.935696,0.4041)"
     id="g2304"
     style="fill:#ffffff">
    <path
       inkscape:connector-curvature="0"
       id="path2306"
       style="fill:#ffffff;fill-opacity:1;fill-rule:nonzero;stroke:none"
       d="M 0,0 C 0.063,0.027 0.13,0.038 0.194,0.062 0.13,0.038 0.063,0.027 0,0" />
  </g>
  <g
     transform="matrix(1.25,0,0,-1.25,15.878096,0.1039)"
     id="g2308"
     style="fill:#ffffff">
    <path
       inkscape:connector-curvature="0"
       id="path2310"
       style="fill:#ffffff;fill-opacity:1;fill-rule:nonzero;stroke:none"
       d="M 0,0 C 0.121,0.025 0.246,0.025 0.369,0.039 0.246,0.025 0.121,0.025 0,0" />
  </g>
  <g
     transform="matrix(1.25,0,0,-1.25,19.131396,0.5872)"
     id="g2312"
     style="fill:#ffffff">
    <path
       inkscape:connector-curvature="0"
       id="path2314"
       style="fill:#ffffff;fill-opacity:1;fill-rule:nonzero;stroke:none"
       d="M 0,0 C 0.149,-0.074 0.3,-0.143 0.444,-0.233 0.3,-0.143 0.149,-0.074 0,0" />
  </g>
  <g
     transform="matrix(1.25,0,0,-1.25,18.392696,0.2796)"
     id="g2316"
     style="fill:#ffffff">
    <path
       inkscape:connector-curvature="0"
       id="path2318"
       style="fill:#ffffff;fill-opacity:1;fill-rule:nonzero;stroke:none"
       d="M 0,0 C 0.104,-0.035 0.211,-0.057 0.313,-0.1 0.211,-0.057 0.104,-0.035 0,0" />
  </g>
  <g
     transform="matrix(1.25,0,0,-1.25,6.6800961,28.2679)"
     id="g2320"
     style="fill:#ffffff">
    <path
       inkscape:connector-curvature="0"
       id="path2322"
       style="fill:#ffffff;fill-opacity:1;fill-rule:nonzero;stroke:none"
       d="m 0,0 c -1.587,-1.906 -5.246,-6.877 -5.344,-12.287 -0.003,-0.171 0.082,-0.332 0.226,-0.427 0.083,-0.055 0.179,-0.082 0.274,-0.082 0.071,0 0.141,0.015 0.207,0.045 l 5.742,2.609 c -0.002,0.022 -0.009,0.041 -0.011,0.063 L 0,0 z" />
  </g>
  <g
     transform="matrix(1.25,0,0,-1.25,33.777396,43.4461)"
     id="g2324"
     style="fill:#ffffff">
    <path
       inkscape:connector-curvature="0"
       id="path2326"
       style="fill:#ffffff;fill-opacity:1;fill-rule:nonzero;stroke:none"
       d="M 0,0 C -0.161,5.402 -3.836,10.346 -5.385,12.196 L -6.481,2.061 C -6.482,2.047 -6.487,2.034 -6.489,2.02 l 5.786,-2.627 c 0.066,-0.031 0.137,-0.045 0.207,-0.045 0.008,-0.001 0.015,-0.001 0.019,0 0.277,0 0.5,0.223 0.5,0.5 C 0.023,-0.1 0.016,-0.048 0,0" />
  </g>
  <g
     transform="matrix(1.25,0,0,-1.25,16.858396,22.223)"
     id="g2328"
     style="fill:#ffffff">
    <path
       inkscape:connector-curvature="0"
       id="path2330"
       style="fill:#ffffff;fill-opacity:1;fill-rule:nonzero;stroke:none"
       d="m 0,0 c -1.618,0.001 -2.93,1.312 -2.931,2.932 0,1.619 1.313,2.932 2.934,2.931 C 1.62,5.862 2.935,4.551 2.935,2.932 2.934,1.313 1.62,0.002 0,0 m 7.23,8.185 c -0.501,3.046 -2.302,7.061 -4.796,8.765 -0.058,0.039 -0.113,0.088 -0.171,0.125 -0.145,0.091 -0.295,0.159 -0.445,0.234 -0.092,0.046 -0.182,0.106 -0.277,0.146 -0.103,0.043 -0.209,0.065 -0.313,0.1 -0.147,0.049 -0.291,0.108 -0.442,0.14 -0.068,0.014 -0.14,0.011 -0.209,0.022 -0.19,0.03 -0.381,0.061 -0.576,0.061 -0.141,0 -0.277,-0.028 -0.416,-0.044 -0.123,-0.013 -0.248,-0.013 -0.369,-0.039 -0.191,-0.041 -0.375,-0.11 -0.56,-0.177 C -1.408,17.493 -1.475,17.482 -1.538,17.455 -1.684,17.394 -1.822,17.309 -1.963,17.231 -2.062,17.178 -2.164,17.136 -2.261,17.074 -2.319,17.037 -2.375,16.988 -2.433,16.948 -4.23,15.719 -5.669,13.292 -6.518,10.875 -6.66,10.471 -6.779,10.069 -6.887,9.672 -7.112,8.844 -7.269,8.041 -7.332,7.32 -7.356,7.054 -7.368,6.798 -7.368,6.556 l 2.31,-21.282 c 0.028,-0.395 0.356,-0.702 0.75,-0.702 l 8.619,0 c 0.394,0 0.722,0.306 0.751,0.702 l 2.31,21.332 c 0,0.478 -0.049,1.011 -0.142,1.579" />
  </g>
  <g
     transform="matrix(1.25,0,0,-1.25,19.520696,45.4371)"
     id="g2332"
     style="fill:#ffffff">
    <path
       inkscape:connector-curvature="0"
       id="path2334"
       style="fill:#ffffff;fill-opacity:1;fill-rule:nonzero;stroke:none"
       d="m 0,0 c -0.595,-1.818 -1.333,-3.224 -2.129,-3.224 -0.797,0 -1.534,1.406 -2.13,3.224 -0.884,-0.421 -1.458,-1.199 -1.458,-2.499 0,-2.172 1.607,-10.832 3.587,-10.833 1.983,0.001 3.589,8.662 3.589,10.833 0,1.3 -0.576,2.078 -1.459,2.499" />
  </g>
</svg>
