<?xml version="1.0" encoding="UTF-8" standalone="no"?>
<!-- Created with Inkscape (http://www.inkscape.org/) -->

<svg
   xmlns:dc="http://purl.org/dc/elements/1.1/"
   xmlns:cc="http://creativecommons.org/ns#"
   xmlns:rdf="http://www.w3.org/1999/02/22-rdf-syntax-ns#"
   xmlns:svg="http://www.w3.org/2000/svg"
   xmlns="http://www.w3.org/2000/svg"
   xmlns:sodipodi="http://sodipodi.sourceforge.net/DTD/sodipodi-0.dtd"
   xmlns:inkscape="http://www.inkscape.org/namespaces/inkscape"
   id="svg2"
   version="1.1"
   inkscape:version="0.48.4 r9939"
   width="62.552856"
   height="42.471485"
   sodipodi:docname="vintage.svg">
  <metadata
     id="metadata8">
    <rdf:RDF>
      <cc:Work
         rdf:about="">
        <dc:format>image/svg+xml</dc:format>
        <dc:type
           rdf:resource="http://purl.org/dc/dcmitype/StillImage" />
        <dc:title></dc:title>
      </cc:Work>
    </rdf:RDF>
  </metadata>
  <defs
     id="defs6" />
  <sodipodi:namedview
     pagecolor="#404754"
     bordercolor="#666666"
     borderopacity="1"
     objecttolerance="10"
     gridtolerance="10"
     guidetolerance="10"
     inkscape:pageopacity="1"
     inkscape:pageshadow="2"
     inkscape:window-width="1301"
     inkscape:window-height="744"
     id="namedview4"
     showgrid="false"
     inkscape:zoom="3.620168"
     inkscape:cx="38.141133"
     inkscape:cy="6.7454363"
     inkscape:window-x="65"
     inkscape:window-y="24"
     inkscape:window-maximized="1"
     inkscape:current-layer="svg2"
     fit-margin-top="0"
     fit-margin-left="0"
     fit-margin-right="0"
     fit-margin-bottom="0" />
  <g
     transform="matrix(1.25,0,0,-1.25,46.865035,6.475)"
     id="g2452"
     style="fill:#ffffff">
    <path
       inkscape:connector-curvature="0"
       id="path2454"
       style="fill:#ffffff;fill-opacity:1;fill-rule:nonzero;stroke:none"
       d="m 0,0 0.516,0 c 0.264,0 0.49,0.192 0.53,0.454 L 1.679,4.562 C 1.702,4.717 1.657,4.874 1.556,4.992 1.453,5.111 1.305,5.18 1.148,5.18 L 0,5.18 C -1.409,5.18 -3.455,4.171 -3.455,2.59 -3.455,1.009 -1.409,0 0,0" />
  </g>
  <g
     transform="matrix(1.25,0,0,-1.25,54.246535,38.2426)"
     id="g2456"
     style="fill:#ffffff">
    <path
       inkscape:connector-curvature="0"
       id="path2458"
       style="fill:#ffffff;fill-opacity:1;fill-rule:nonzero;stroke:none"
       d="M 0,0 C -1.756,0.032 -3.15,1.479 -3.117,3.234 -3.085,4.987 -1.639,6.385 0.117,6.352 1.872,6.318 3.268,4.87 3.233,3.117 3.203,1.361 1.753,-0.034 0,0 m 5.038,7.512 c 0.052,0.009 0.097,0.02 0.145,0.035 0.549,0.163 2.931,0.863 -0.037,3.28 -2.226,1.816 -5.028,1.951 -7.167,1.455 0.043,0.19 0.071,0.389 0.071,0.598 0.009,1.275 -0.895,2.316 -2.016,2.322 l -0.343,-0.013 -4.254,9.431 c -1.263,0.676 -2.297,1.82 -2.297,3.384 0,0.422 0.082,0.809 0.216,1.171 -0.291,0.476 -0.795,0.808 -1.397,0.818 -0.932,0.018 -1.703,-0.722 -1.72,-1.659 -0.002,-0.106 0.006,-0.214 0.026,-0.318 l -3.093,-2.087 c -0.455,-0.229 -0.631,-0.785 -0.404,-1.236 0.228,-0.446 0.782,-0.632 1.236,-0.399 l 3.053,2.069 c -0.004,-0.241 2.824,-10.03 2.824,-10.03 -0.413,-0.193 -0.745,-0.548 -0.888,-1.01 l -4.112,-10.205 -7.567,0 c 0.398,0.62 1.159,5.599 1.159,5.599 0.021,1.125 0.5,2.063 1.898,2.9 0.812,0.494 1.347,1.313 1.364,2.243 0.029,1.56 -1.395,2.852 -3.19,2.885 l -13.871,0.276 c -1.79,0.034 -3.266,-1.207 -3.295,-2.763 -0.012,-0.71 0.281,-1.367 0.771,-1.871 -1.901,-1.083 -3.331,-2.865 -4.158,-4.518 -0.793,-1.585 -2.087,-4.626 -0.927,-6.178 0.503,-0.672 1.363,-0.579 3.269,-0.637 l 0,-0.002 26.102,0 c 1.653,0 5.713,6.635 6.372,7.778 l 0.001,10e-4 0,0.002 1.174,-0.255 0.827,-0.002 C -7.096,8.28 -8.432,3.052 -8.432,3.052 c 0.395,-0.008 1.068,-0.07 1.913,0.349 0,-0.026 -10e-4,-0.052 -0.002,-0.078 -0.067,-3.637 2.829,-6.636 6.46,-6.705 3.635,-0.066 6.637,2.825 6.705,6.463 0.03,1.691 -0.581,3.243 -1.606,4.431" />
  </g>
  <g
     transform="matrix(1.25,0,0,-1.25,12.761034,38.1009)"
     id="g2460"
     style="fill:#ffffff">
    <path
       inkscape:connector-curvature="0"
       id="path2462"
       style="fill:#ffffff;fill-opacity:1;fill-rule:nonzero;stroke:none"
       d="m 0,0 c -1.115,0.02 -2.067,0.62 -2.612,1.502 l -3.645,0 c 0.702,-2.817 3.196,-4.94 6.236,-4.997 3.127,-0.059 5.754,2.087 6.482,4.997 l -3.733,0 C 2.159,0.587 1.155,-0.023 0,0" />
  </g>
</svg>
